<svg width="25" height="24" viewBox="0 0 25 24" fill="none" xmlns="http://www.w3.org/2000/svg">
<path d="M8.5 12C10.78 12 12.5 10.28 12.5 7.99999C12.5 5.71999 10.78 3.99999 8.5 3.99999C6.22 3.99999 4.5 5.71999 4.5 7.99999C4.5 10.28 6.22 12 8.5 12ZM8.5 5.99999C9.678 5.99999 10.5 6.82199 10.5 7.99999C10.5 9.17799 9.678 9.99999 8.5 9.99999C7.322 9.99999 6.5 9.17799 6.5 7.99999C6.5 6.82199 7.322 5.99999 8.5 5.99999ZM9.5 13H7.5C4.743 13 2.5 15.243 2.5 18V19H4.5V18C4.5 16.346 5.846 15 7.5 15H9.5C11.154 15 12.5 16.346 12.5 18V19H14.5V18C14.5 15.243 12.257 13 9.5 13ZM18.864 2.63599L17.45 4.04999C18.771 5.37299 19.5 7.13099 19.5 8.99999C19.5 10.869 18.771 12.627 17.45 13.95L18.864 15.364C20.564 13.663 21.5 11.403 21.5 8.99999C21.5 6.59699 20.564 4.33699 18.864 2.63599Z" fill="#737373"/>
<path d="M16.0351 5.46399L14.6211 6.87999C15.1881 7.44499 15.5001 8.19799 15.5001 8.99999C15.5001 9.80199 15.1881 10.555 14.6211 11.12L16.0351 12.536C16.9791 11.592 17.5001 10.337 17.5001 8.99999C17.5001 7.66299 16.9791 6.40799 16.0351 5.46399Z" fill="#737373"/>
</svg>
