<svg width="18" height="17" viewBox="0 0 18 17" fill="none" xmlns="http://www.w3.org/2000/svg">
<path d="M9 0.565247C7.84091 0.565247 6.93537 0.997312 6.28338 1.86144C5.63139 2.72557 5.3054 3.83019 5.3054 5.1753C5.29735 6.8465 5.8286 8.17123 6.89915 9.14949C7.03598 9.27992 7.08428 9.44704 7.04403 9.65085L6.76634 10.2378C6.67779 10.4335 6.54699 10.5863 6.37393 10.6964C6.20088 10.8064 5.83665 10.9633 5.28125 11.1672C5.2571 11.1753 4.74799 11.3424 3.75391 11.6685C2.75982 11.9946 2.23059 12.1739 2.16619 12.2066C1.49006 12.4919 1.04735 12.7894 0.838068 13.0992C0.612689 13.6128 0.5 14.9131 0.5 17H17.5C17.5 14.9131 17.3873 13.6128 17.1619 13.0992C16.9527 12.7894 16.5099 12.4919 15.8338 12.2066C15.7694 12.1739 15.2402 11.9946 14.2461 11.6685C13.252 11.3424 12.7429 11.1753 12.7188 11.1672C12.1634 10.9633 11.7991 10.8064 11.6261 10.6964C11.453 10.5863 11.3222 10.4335 11.2337 10.2378L10.956 9.65085C10.9157 9.44704 10.964 9.27992 11.1009 9.14949C12.1714 8.17123 12.7027 6.8465 12.6946 5.1753C12.6946 3.83019 12.3686 2.72557 11.7166 1.86144C11.0646 0.997312 10.1591 0.565247 9 0.565247Z" fill="#737373"/>
</svg>
