<svg width="22" height="22" viewBox="0 0 22 22" fill="none" xmlns="http://www.w3.org/2000/svg">
<path fill-rule="evenodd" clip-rule="evenodd" d="M21.9227 6.46258C21.8393 4.70061 21.4368 3.13988 20.146 1.85399C18.8601 0.568098 17.2994 0.165644 15.5374 0.0773006C13.7215 -0.0257669 8.27853 -0.0257669 6.46258 0.0773006C4.70552 0.160736 3.14479 0.56319 1.85399 1.84908C0.56319 3.13497 0.165644 4.69571 0.0773006 6.45767C-0.0257669 8.27362 -0.0257669 13.7166 0.0773006 15.5325C0.160736 17.2945 0.56319 18.8552 1.85399 20.1411C3.14479 21.427 4.70061 21.8294 6.46258 21.9178C8.27853 22.0209 13.7215 22.0209 15.5374 21.9178C17.2994 21.8344 18.8601 21.4319 20.146 20.1411C21.4319 18.8552 21.8344 17.2945 21.9227 15.5325C22.0258 13.7166 22.0258 8.27853 21.9227 6.46258ZM16.8739 6.44317C17.6003 6.44317 18.1893 5.85913 18.1893 5.12784C18.1893 4.40146 17.6003 3.8125 16.8739 3.8125C16.1476 3.8125 15.5586 4.40146 15.5586 5.12784C15.5586 5.85422 16.1426 6.44317 16.8739 6.44317ZM11.0025 5.35828C7.88098 5.35828 5.36319 7.87607 5.36319 10.9975C5.36319 14.119 7.88098 16.6368 11.0025 16.6368C14.1239 16.6368 16.6417 14.119 16.6417 10.9975C16.6417 7.87607 14.1239 5.35828 11.0025 5.35828ZM11.0025 14.6638C8.98528 14.6638 7.3362 13.0196 7.3362 10.9975C7.3362 8.97546 8.98037 7.33129 11.0025 7.33129C13.0245 7.33129 14.6687 8.97546 14.6687 10.9975C14.6687 13.0196 13.0196 14.6638 11.0025 14.6638ZM17.4859 19.5718C18.4528 19.184 19.1939 18.4429 19.5767 17.481C20.0692 16.2433 20.0418 13.5361 20.024 11.7812C20.0211 11.4901 20.0184 11.2252 20.0184 10.9975C20.0184 10.7699 20.0211 10.505 20.024 10.214C20.0418 8.46 20.0692 5.75593 19.5767 4.51411C19.189 3.54724 18.4479 2.80613 17.4859 2.42331C16.2444 1.93346 13.524 1.95955 11.7696 1.97638C11.485 1.97911 11.2258 1.9816 11.0025 1.9816C10.7748 1.9816 10.5099 1.97891 10.2189 1.97596C8.46492 1.95819 5.76084 1.93079 4.51902 2.42331C3.55215 2.81104 2.81104 3.55215 2.42822 4.51411C1.93836 5.75564 1.96446 8.476 1.98129 10.2304C1.98402 10.515 1.9865 10.7742 1.9865 10.9975C1.9865 11.2252 1.98382 11.4901 1.98087 11.7811C1.9631 13.5351 1.9357 16.2392 2.42822 17.481C2.81595 18.4479 3.55706 19.189 4.51902 19.5718C5.76055 20.0616 8.4809 20.0355 10.2353 20.0187C10.5199 20.016 10.7791 20.0135 11.0025 20.0135C11.2301 20.0135 11.495 20.0162 11.786 20.0191C13.54 20.0369 16.2441 20.0643 17.4859 19.5718Z" fill="#6C264C"/>
</svg>
